<svg width="24" height="24" viewBox="0 0 24 24" fill="none" xmlns="http://www.w3.org/2000/svg">
<path d="M10.5 2.25C10.5 1.83579 10.8358 1.5 11.25 1.5H12.75C13.1642 1.5 13.5 1.83579 13.5 2.25V3.62994C14.3695 3.83324 15.1963 4.17285 15.9517 4.63131L16.9695 3.61351C17.2624 3.32062 17.7373 3.32062 18.0302 3.61351L19.0908 4.67417C19.3837 4.96706 19.3837 5.44193 19.0908 5.73482L18.0733 6.75234C18.5318 7.50765 18.8714 8.33448 19.0747 9.20404L20.4545 9.20404C20.8688 9.20404 21.2045 9.53983 21.2045 9.95404V11.454C21.2045 11.8683 20.8688 12.204 20.4545 12.204H19.0747C18.8714 13.0736 18.5318 13.9004 18.0733 14.6557L19.0908 15.6732C19.3837 15.9661 19.3837 16.441 19.0908 16.7339L18.0302 17.7945C17.7373 18.0874 17.2624 18.0874 16.9695 17.7945L15.9517 16.7767C15.1963 17.2352 14.3695 17.5748 13.5 17.7781V19.158C13.5 19.5722 13.1642 19.908 12.75 19.908H11.25C10.8358 19.908 10.5 19.5722 10.5 19.158V17.7781C9.63052 17.5748 8.80373 17.2352 8.04844 16.7767L7.03064 17.7945C6.73775 18.0874 6.26288 18.0874 5.96999 17.7945L4.90933 16.7339C4.61644 16.441 4.61644 15.9661 4.90933 15.6732L5.92683 14.6557C5.46838 13.9004 5.12877 13.0736 4.92547 12.204H3.54545C3.13124 12.204 2.79545 11.8683 2.79545 11.454V9.95404C2.79545 9.53983 3.13124 9.20404 3.54545 9.20404H4.92547C5.12877 8.33448 5.46838 7.50765 5.92683 6.75234L4.90933 5.73482C4.61644 5.44193 4.61644 4.96706 4.90933 4.67417L5.96999 3.61351C6.26288 3.32062 6.73775 3.32062 7.03064 3.61351L8.04844 4.63131C8.80373 4.17285 9.63052 3.83324 10.5 3.62994V2.25ZM12 15C13.6569 15 15 13.6569 15 12C15 10.3431 13.6569 9 12 9C10.3431 9 9 10.3431 9 12C9 13.6569 10.3431 15 12 15Z" fill="#212121"/>
</svg>
